<svg width="229" height="219" viewBox="0 0 229 219" fill="none" xmlns="http://www.w3.org/2000/svg">
<path d="M5.73328 18.8611C5.73328 14.0533 7.64316 9.44246 11.0428 6.04284C14.4424 2.64322 19.0533 0.733337 23.8611 0.733337L60.1166 0.733337V18.8611H23.8611V55.1167H5.73328V18.8611ZM223.267 200.139C223.267 204.947 221.357 209.558 217.957 212.957C214.557 216.357 209.947 218.267 205.139 218.267H168.883V200.139H205.139V163.883H223.267V200.139ZM23.8611 218.267C19.0533 218.267 14.4424 216.357 11.0428 212.957C7.64316 209.558 5.73328 204.947 5.73328 200.139V163.883H23.8611V200.139H60.1166V218.267H23.8611ZM205.139 0.733337C209.947 0.733337 214.557 2.64322 217.957 6.04284C221.357 9.44246 223.267 14.0533 223.267 18.8611V55.1167H205.139V18.8611H168.883V0.733337H205.139Z" fill="white"/>
<path d="M220.823 101.361H179.862V92.733C179.862 88.0811 176.183 84.2751 171.687 84.2751C167.19 84.2751 163.511 88.0811 163.511 92.733V101.361H155.418V75.7345C155.418 71.0827 151.739 67.2766 147.242 67.2766L114.458 67.2747C109.961 67.2747 106.282 71.0808 106.282 75.7326V101.359L8.17557 101.361C3.67901 101.361 0 105.167 0 109.819C0 114.471 3.67901 118.277 8.17557 118.277H220.824C225.321 118.277 229 114.471 229 109.819C229 105.167 225.321 101.361 220.824 101.361H220.823ZM139.067 101.191H122.634V84.1902H139.067V101.191Z" fill="white" fill-opacity="0.88"/>
<path d="M171.685 75.7166C167.17 75.7166 163.509 71.9294 163.509 67.2587V58.9158H114.348C109.834 58.9158 106.173 55.1287 106.173 50.4579C106.173 45.7872 109.834 42 114.348 42L171.685 42.0019C176.2 42.0019 179.86 45.789 179.86 50.4598V67.2606C179.86 71.9294 176.2 75.7166 171.685 75.7166Z" fill="white" fill-opacity="0.88"/>
<path d="M89.9293 92.5164H57.4499C52.935 92.5164 49.2743 88.7293 49.2743 84.0585V50.4589C49.2743 45.7881 52.935 42.001 57.4499 42.001H89.9293C94.4441 42.001 98.1049 45.7881 98.1049 50.4589V84.06C98.1049 88.7288 94.4441 92.516 89.9293 92.516V92.5164ZM65.6254 75.6006H81.7537V58.9153H65.6254V75.6006Z" fill="white" fill-opacity="0.88"/>
<path d="M89.9293 177.096H57.4499C52.935 177.096 49.2743 173.308 49.2743 168.638V135.037C49.2743 130.366 52.935 126.579 57.4499 126.579H89.9293C94.4441 126.579 98.1049 130.366 98.1049 135.037V168.638C98.1049 173.308 94.4441 177.096 89.9293 177.096ZM65.6254 160.18H81.7537V143.494H65.6254V160.18Z" fill="white" fill-opacity="0.88"/>
<path d="M147.21 151.939H114.511C109.997 151.939 106.336 148.152 106.336 143.481V135.037C106.336 130.366 109.997 126.579 114.511 126.579C119.023 126.579 122.679 130.358 122.687 135.023H139.034C139.042 130.357 142.699 126.579 147.21 126.579C151.725 126.579 155.385 130.366 155.385 135.037V143.481C155.385 148.152 151.727 151.939 147.21 151.939Z" fill="white" fill-opacity="0.88"/>
<path d="M171.685 177.313H155.354C150.839 177.313 147.178 173.526 147.178 168.855C147.178 164.184 150.839 160.397 155.354 160.397H163.509V135.817C163.509 131.146 167.17 127.359 171.685 127.359C176.2 127.359 179.861 131.146 179.861 135.817V168.855C179.861 173.526 176.2 177.313 171.685 177.313Z" fill="white" fill-opacity="0.88"/>
<path d="M130.9 177.313H114.454C109.94 177.313 106.279 173.526 106.279 168.855C106.279 164.184 109.94 160.397 114.454 160.397H130.9C135.415 160.397 139.076 164.184 139.076 168.855C139.076 173.526 135.417 177.313 130.9 177.313Z" fill="white" fill-opacity="0.88"/>
</svg>
